<svg width="110" height="135" xmlns="http://www.w3.org/2000/svg" version="1.1">

 <g>
  <title>Layer 1</title>
  <path fill="#ffffff" id="svg_1" d="m85.238,37.211l5.3789,-8.9609c1.5391,-2.5703 0.89844,-5.8711 -1.5,-7.6719c-1.3594,-1.0195 -3.1016,-1.3984 -4.7695,-1.0312c-1.6602,0.37109 -3.0781,1.4492 -3.8789,2.9492l-4.8398,9.0781c-7.2383,-2.9453 -16.289,-4.5742 -25.629,-4.5742c-22.609,0 -41,9.4219 -41,21c0,23.711 18.391,43 41,43s41,-19.289 41,-43c0,-3.8398 -2,-7.5508 -5.7617,-10.789l0,-0.0001zm-3.0078,-13.762c0.53125,-0.98828 1.4609,-1.6992 2.5508,-1.9414c1.0898,-0.23828 2.2383,0 3.1289,0.67188c1.5781,1.1797 2,3.3516 0.98828,5.0391l-15.129,25.23c-0.83984,-1.6992 -1.5312,-3.4609 -2.0391,-5.2695c-0.14844,-0.53125 -0.69922,-0.83984 -1.2305,-0.69141l-0.64844,0.17969l12.37906,-23.21836zm-3.8516,29.449c0.69922,0.51953 1.5586,0.78906 2.4219,0.78906c0.51953,0 1.0391,-0.10156 1.5195,-0.30078c0.67188,-0.28125 1.25,-0.76172 1.6914,-1.3398c0.64844,1.2812 0.98828,2.6133 0.98828,3.9531c0,0.10938 0.03125,0.21094 0.05859,0.30859c-1.5117,1.5 -3.4219,2.8906 -5.6484,4.1406c-1.75,-1.8203 -3.2812,-3.8203 -4.5391,-5.9609l4.5586,-7.6016c1.3398,1.0195 2.4609,2.0781 3.3203,3.1914c-0.14062,0.62891 -0.58984,1.2109 -1.1914,1.4609c-0.62891,0.26172 -1.4297,0.16016 -1.9805,-0.25c-0.44141,-0.32812 -1.0703,-0.23828 -1.3984,0.19922c-0.32813,0.45312 -0.23828,1.082 0.19922,1.4102l0.00001,0.00001zm-29.059,14.09c-0.41016,-0.75 -0.37109,-1.8008 0.16016,-2.6211c0.55078,-0.87109 1.5898,-1.5391 2.8398,-1.8398c1.3008,-0.30859 2.6914,-0.21875 3.8789,-0.10156c0.89844,0.10156 1.8516,0.23828 2.6484,0.60156c0.78125,0.35156 1.3594,0.91016 1.6016,1.5312c0.23047,0.60938 0.08984,1.3203 -0.32812,1.6602c-0.03906,0.03906 -0.07031,0.08984 -0.10156,0.12891c-3.2109,0.43359 -6.5586,0.65234 -10.02,0.65234c-0.23047,0 -0.44922,-0.01172 -0.67969,-0.01172l0.00051,-0.00003zm12.988,-3.1172c-0.42969,-1.1289 -1.3594,-2.0703 -2.6406,-2.6484c-1.0703,-0.48047 -2.1992,-0.66016 -3.2695,-0.76953c-1.3594,-0.14062 -2.9609,-0.23828 -4.5508,0.14062c-1.7812,0.42188 -3.2188,1.3906 -4.0586,2.7109c-0.71094,1.1094 -0.89844,2.4609 -0.62109,3.6484c-3.5391,-0.12109 -6.9492,-0.48047 -10.16,-1.0312c-0.01172,-1.0898 0.46094,-2.1914 1.3008,-3.0391c0.33984,-0.33984 0.64062,-0.55078 0.96094,-0.64062c0.32031,-0.08984 0.62891,-0.03125 0.73047,0.05078c0.42188,0.35938 1.0508,0.30859 1.4102,-0.12109c0.35938,-0.42188 0.30078,-1.0508 -0.12109,-1.4102c-0.64062,-0.53906 -1.6484,-0.71875 -2.5781,-0.44922c-0.64063,0.19141 -1.2383,0.55859 -1.8203,1.1484c-1.1094,1.1289 -1.7812,2.5898 -1.8711,4.0781c-5.8594,-1.1914 -11.012,-3.0586 -15.012,-5.4102c0.39844,-0.30859 0.78906,-0.67969 1.0703,-1.1719c0.48047,-0.82812 0.58984,-1.8594 0.35156,-3.1484c-0.05078,-0.26953 -0.10938,-0.53906 -0.17188,-0.80859c-0.12109,-0.53125 -0.23828,-1.0391 -0.25,-1.5195c-0.01172,-0.55078 -0.48828,-0.96875 -1.0195,-0.98047c-0.55078,0.01172 -0.98828,0.46875 -0.98047,1.0195c0.01172,0.69141 0.16016,1.3203 0.30078,1.9297c0.05859,0.23828 0.10938,0.48047 0.16016,0.73047c0.14844,0.80078 0.10938,1.3789 -0.12109,1.7812c-0.23047,0.39844 -0.71094,0.71094 -1.1914,0.98828c-1.2109,-0.82812 -2.3008,-1.7188 -3.2188,-2.6406c0.03125,-0.09766 0.0625,-0.19922 0.0625,-0.30859c0,-9.3711 15.699,-17 35,-17c3.7617,0 7.4297,0.28906 10.922,0.85938c-0.19922,0.19141 -0.39062,0.37891 -0.55078,0.60156c-0.89062,1.1602 -1.25,2.6992 -0.98047,4.1289c0.08984,0.48047 0.51172,0.80859 0.98047,0.80859c0.05859,0 0.12891,-0.01172 0.19141,-0.01953c0.53906,-0.10156 0.89844,-0.62891 0.78906,-1.1719c-0.17187,-0.87891 0.05859,-1.8203 0.60156,-2.5312c0.51953,-0.67969 1.3281,-1.1211 2.1719,-1.2109c2.0508,0.44922 4.0195,1 5.8906,1.6406l-2.8281,5.3008l-2.25,0.62891c-0.37891,0.10938 -0.94922,0.26172 -1.3789,0.71875c-0.94922,1 -0.41016,2.4414 -0.23047,2.9102l4.9609,13.109c-1.8594,0.48047 -3.8008,0.89062 -5.8203,1.2188c0.15234,-0.67188 0.10938,-1.4219 -0.16016,-2.1211l-0.00011,0.0004zm7.9023,0.37891l0,-0.03125l-5.0117,-13.25c-0.25,-0.64844 -0.19922,-0.82812 -0.19922,-0.82812c0.07031,-0.05859 0.35156,-0.14062 0.46875,-0.17188l4.6211,-1.2891c1.4883,4.7109 4.0703,9.0703 7.4883,12.75c-2.207,1.0703 -4.6875,2.0195 -7.3672,2.8203l-0.00003,0.00005zm-20.211,-35.25c9.0117,0 17.711,1.5508 24.68,4.3594l-3.7109,6.9609c-6.1797,-2.1719 -13.398,-3.3203 -20.969,-3.3203c-19.578,0 -35.148,7.4297 -36.84,17.219c-1.3906,-1.9492 -2.1602,-4.0391 -2.1602,-6.2188c0,-10.48 17.5,-19 39,-19l0.0001,-0.0002zm0,60c-19.09,0 -35.02,-14.5 -38.352,-33.578c5.8711,7.9297 20.84,13.578 38.352,13.578s32.48,-5.6484 38.352,-13.578c-3.332,19.078 -19.262,33.578 -38.352,33.578zm36.84,-34.781c-0.57031,-3.2812 -2.7383,-6.3789 -6.3711,-9.0703l3.7188,-6.1992c3.1406,2.7891 4.8125,5.9023 4.8125,9.0508c0,2.1797 -0.76953,4.2695 -2.1602,6.2188l0,-0.0001zm-42.988,-37.59c-1.6406,-2.0312 -1.6406,-5.2188 0,-7.25c0.35156,-0.42969 0.98047,-0.5 1.4102,-0.14844c0.42969,0.35156 0.5,0.98047 0.14844,1.4102c-1.0391,1.2891 -1.0391,3.4609 0,4.75c1.6406,2.0312 1.6406,5.2188 0,7.25c-0.19922,0.25 -0.48828,0.37109 -0.78125,0.37109c-0.21875,0 -0.44141,-0.07031 -0.62891,-0.21875c-0.42969,-0.35156 -0.5,-0.98047 -0.14844,-1.4102c1.0391,-1.293 1.0391,-3.4727 0,-4.7539l-0.00004,0zm-21.633,4c-1.6406,-2.0312 -1.6406,-5.2188 0,-7.25c0.35156,-0.42969 0.98047,-0.5 1.4102,-0.14844c0.42969,0.35156 0.5,0.98047 0.14844,1.4102c-1.0391,1.2891 -1.0391,3.4609 0,4.75c1.6406,2.0312 1.6406,5.2188 0,7.25c-0.19922,0.23047 -0.48828,0.35938 -0.77734,0.35938c-0.21875,0 -0.44141,-0.07031 -0.62891,-0.21875c-0.42969,-0.35156 -0.5,-0.98047 -0.14844,-1.4102c1.0391,-1.2812 1.0391,-3.4609 -0.00391,-4.7422l-0.00004,0.00001zm42,-2c-1.6406,-2.0312 -1.6406,-5.2188 0,-7.25c0.35156,-0.42969 0.98047,-0.5 1.4102,-0.14844c0.42969,0.35156 0.5,0.98047 0.14844,1.4102c-1.0391,1.2891 -1.0391,3.4609 0,4.75c1.6406,2.0312 1.6406,5.2188 0,7.25c-0.19922,0.23047 -0.48828,0.35938 -0.77734,0.35938c-0.21875,0 -0.44141,-0.07031 -0.62891,-0.21875c-0.42969,-0.35156 -0.5,-0.98047 -0.14844,-1.4102c1.0391,-1.2812 1.0391,-3.4609 -0.00391,-4.7422l-0.00004,0.00001zm-30.98,27.391c-1.6406,-0.75 -3.8086,-0.44141 -5.2695,0.75c-1.3086,1.0586 -2.0391,2.75 -1.9492,4.5117c0.08984,1.8906 1.0898,3.6602 2.6797,4.75c1.0781,0.73828 2.4219,1.1289 3.7383,1.1289c0.69141,0 1.3711,-0.10938 2,-0.32031c2.0195,-0.69141 3.4609,-2.4492 3.5703,-4.3711c0.07031,-1.2812 -0.41016,-2.6094 -1.4102,-3.8398c-0.91797,-1.1484 -2.0195,-2 -3.3594,-2.6094l0,0.00001zm0.55078,8.9297c-1.2695,0.42969 -2.8203,0.21094 -3.9609,-0.55859c-1.0703,-0.73828 -1.75,-1.9297 -1.8086,-3.1992c-0.05859,-1.1289 0.39844,-2.1992 1.2188,-2.8711c0.57031,-0.46094 1.3281,-0.71094 2.0586,-0.71094c0.39844,0 0.78125,0.07031 1.1211,0.23047c1.0586,0.48047 1.8984,1.1289 2.6289,2.0391c0.67188,0.82812 1.0117,1.7109 0.96875,2.4688c-0.06641,1.1133 -0.98438,2.1836 -2.2266,2.6016l-0.00005,-0.00014zm20.98,-9.1484c-0.46875,-0.85156 -1.0508,-1.8008 -2.0312,-2.3516c-1.1797,-0.64844 -2.7188,-0.60156 -4.3398,0.16016c-0.42969,0.19922 -0.83984,0.42969 -1.2617,0.67188c-0.62109,0.35156 -1.1992,0.67969 -1.8086,0.87109c-1.0312,0.32812 -2.4492,0.89062 -2.7812,2.0781c-0.23047,0.85156 0.08984,1.6289 0.30859,2.1406l2.4492,5.8398c0.17969,0.42969 0.48047,1.1406 1.1797,1.5312c0.33984,0.19141 0.69141,0.26172 1.0195,0.26172c0.69141,0 1.3281,-0.30078 1.6602,-0.46094l7.7891,-3.7109c0.46875,-0.23047 0.69141,-0.78125 0.5,-1.2695c-0.76172,-1.9609 -1.6719,-3.9023 -2.6836,-5.7617l-0.00019,0.00009zm-6.4609,8.9297c-0.67969,0.32812 -0.82812,0.26953 -0.83984,0.26172c-0.08984,-0.05078 -0.25,-0.42969 -0.30078,-0.55078l-2.4492,-5.8398c-0.10156,-0.23828 -0.26953,-0.64844 -0.23047,-0.80859c0,0 0.19141,-0.32812 1.4609,-0.71875c0.80859,-0.25 1.5117,-0.64844 2.1914,-1.0391c0.37109,-0.21094 0.73828,-0.42188 1.1211,-0.60156c0.48047,-0.21875 1.6797,-0.69141 2.5195,-0.23047c0.51953,0.28906 0.89844,0.92969 1.25,1.5703c0.82812,1.5117 1.5781,3.0703 2.2305,4.6602l-6.95311,3.29683z"/>
 </g>
</svg>